<?xml version="1.0" encoding="UTF-8" standalone="no"?>
<!-- Created with Inkscape (http://www.inkscape.org/) -->

<svg
   xmlns:dc="http://purl.org/dc/elements/1.1/"
   xmlns:cc="http://creativecommons.org/ns#"
   xmlns:rdf="http://www.w3.org/1999/02/22-rdf-syntax-ns#"
   xmlns:svg="http://www.w3.org/2000/svg"
   xmlns="http://www.w3.org/2000/svg"
   xmlns:sodipodi="http://sodipodi.sourceforge.net/DTD/sodipodi-0.dtd"
   xmlns:inkscape="http://www.inkscape.org/namespaces/inkscape"
   width="76.960678mm"
   height="11.636154mm"
   viewBox="0 0 272.69532 41.230467"
   id="svg2"
   version="1.1"
   inkscape:version="0.91 r13725"
   sodipodi:docname="mahjong.svg">
  <defs
     id="defs4" />
  <sodipodi:namedview
     id="base"
     pagecolor="#ffffff"
     bordercolor="#666666"
     borderopacity="1.0"
     inkscape:pageopacity="0.0"
     inkscape:pageshadow="2"
     inkscape:zoom="2.8"
     inkscape:cx="135.48062"
     inkscape:cy="-20.346304"
     inkscape:document-units="px"
     inkscape:current-layer="layer1"
     showgrid="false"
     inkscape:window-width="1366"
     inkscape:window-height="713"
     inkscape:window-x="-5"
     inkscape:window-y="-5"
     inkscape:window-maximized="1"
     fit-margin-top="0"
     fit-margin-left="0"
     fit-margin-right="0"
     fit-margin-bottom="0" />
  <metadata
     id="metadata7">
    <rdf:RDF>
      <cc:Work
         rdf:about="">
        <dc:format>image/svg+xml</dc:format>
        <dc:type
           rdf:resource="http://purl.org/dc/dcmitype/StillImage" />
        <dc:title />
      </cc:Work>
    </rdf:RDF>
  </metadata>
  <g
     inkscape:label="Layer 1"
     inkscape:groupmode="layer"
     id="layer1"
     transform="translate(-276.24295,-126.77512)">
    <g
       transform="translate(1.972673,1.9905)"
       style="font-style:normal;font-weight:normal;font-size:40px;line-height:125%;font-family:sans-serif;letter-spacing:0px;word-spacing:0px;fill:#808000;fill-opacity:1;stroke:#808000;stroke-width:1px;stroke-linecap:butt;stroke-linejoin:miter;stroke-opacity:1"
       id="text4136-3">
      <path
         inkscape:connector-curvature="0"
         d="m 280.24686,131.85324 14.10156,0 0.82031,0.625 q -5.70312,1.34766 -6.95312,3.92578 -1.23047,2.57813 0.3125,5.11719 1.5625,2.53906 5.80078,3.94531 4.23828,1.40625 5.35156,3.53516 1.13281,2.10937 0.99609,3.24219 -0.13671,1.11328 -1.83593,2.8125 -1.69922,1.69921 -9.02344,1.13281 l -5.07813,-2.83203 -1.69921,2.26562 3.3789,2.26563 11.09375,0.41015 q 6.40625,-2.67578 6.83594,-5.91797 0.42969,-3.24218 -1.97266,-5.07812 -2.40234,-1.83594 -5.64453,-2.96875 -3.24219,-1.13281 -4.375,-3.10547 -1.13281,-1.97266 0.27344,-3.94531 l 3.39844,-2.53906 4.78515,-0.29297 3.10547,2.83203 1.13281,-1.69922 -3.10546,-3.37891 9.90234,-0.35156 -1.69922,-2.01172 -1.69922,-1.99219 -32.20703,0 4.00391,4.00391 z"
         style="font-style:normal;font-variant:normal;font-weight:normal;font-stretch:normal;font-family:Ani;-inkscape-font-specification:Ani;fill:#808000;stroke:#808000"
         id="path4137-6" />
      <path
         inkscape:connector-curvature="0"
         d="m 312.04373,158.29855 0.0195,-5.83984 0.0195,-8.75 3.04688,2.92969 0,9.84375 3.90625,-1.64063 -3.49609,3.02735 -3.4961,0.42968 z m 5.17578,-19.82422 q 0,1.32813 -0.89843,2.5 -0.89844,1.17188 -2.40235,1.17188 -1.69922,0 -2.59765,-1.07422 -0.89844,-1.09375 -0.89844,-2.59766 0,-1.5039 0.89844,-2.61718 0.89843,-1.13282 2.59765,-1.13282 1.50391,0 2.40235,1.09375 0.89843,1.07422 0.89843,2.65625 z m -2.05078,0 q 0,-0.76171 -0.42969,-1.26953 -0.42968,-0.52734 -1.13281,-0.52734 -0.80078,0 -1.23047,0.54687 -0.42968,0.52735 -0.42968,1.25 0,0.70313 0.42968,1.23047 0.42969,0.50782 1.23047,0.50782 0.70313,0 1.13281,-0.54688 0.42969,-0.56641 0.42969,-1.19141 z"
         style="font-style:normal;font-variant:normal;font-weight:normal;font-stretch:normal;font-family:Ani;-inkscape-font-specification:Ani;fill:#808000;stroke:#808000"
         id="path4139-7" />
      <path
         inkscape:connector-curvature="0"
         d="m 322.10233,147.81027 3.35937,-0.39062 0.23438,8.98437 1.5625,1.17188 0.44921,-9.17969 q 4.02344,-2.92969 6.9336,0 l 0.23437,7.8125 1.79688,1.5625 0.66406,-9.96094 -2.01172,-1.5625 2.46094,1.95313 q 4.04297,-2.92969 6.95312,0 l 0,7.8125 2.01172,1.5625 0,-11.32813 q -5.37109,-4.10156 -11.54297,-0.29297 -3.92578,-3.61328 -9.96093,0.48828 l -3.59375,-0.19531 0.44922,1.5625 z"
         style="font-style:normal;font-variant:normal;font-weight:normal;font-stretch:normal;font-family:Ani;-inkscape-font-specification:Ani;fill:#808000;stroke:#808000"
         id="path4141-5" />
      <path
         inkscape:connector-curvature="0"
         d="m 355.75467,144.78293 8.49609,4.78515 1.17188,4.49219 -1.75781,3.32031 -5.27344,0.97657 -5.07813,-3.71094 0,11.32812 -2.14843,-2.53906 0,-23.63281 2.14843,2.92969 0,9.375 4.6875,4.10156 4.10157,-0.97656 0.39062,-4.49219 -8.78906,-4.39453 2.05078,-1.5625 z"
         style="font-style:normal;font-variant:normal;font-weight:normal;font-stretch:normal;font-family:Ani;-inkscape-font-specification:Ani;fill:#808000;stroke:#808000"
         id="path4143-3" />
      <path
         inkscape:connector-curvature="0"
         d="m 372.98123,157.55637 0.0195,-26.54297 -1.54297,-0.0391 -3.28125,-3.02734 9.16016,0.13672 2.10938,2.92969 -3.39844,-0.15625 0.0391,25.42968 1.97266,-2.08984 1.44531,0.0586 -3.26172,4.82422 -3.26172,-1.52343 z"
         style="font-style:normal;font-variant:normal;font-weight:normal;font-stretch:normal;font-family:Ani;-inkscape-font-specification:Ani;fill:#808000;stroke:#808000"
         id="path4145-5" />
      <path
         inkscape:connector-curvature="0"
         d="m 387.00467,153.66965 12.26562,-7.10938 -10.97656,-3.22265 -5.58594,4.9414 -0.42968,3.88672 5.58593,5.37109 4.96094,0.42969 5.80078,-4.29687 -2.79297,-1.50391 -3.86718,3.65234 -3.67188,-0.21484 -3.65234,-3.65234 0.42969,-2.8125 3.22265,-2.14844 5.39063,0.21484 -8.61328,4.53125 1.93359,1.9336 z"
         style="font-style:normal;font-variant:normal;font-weight:normal;font-stretch:normal;font-family:Ani;-inkscape-font-specification:Ani;fill:#808000;stroke:#808000"
         id="path4147-6" />
      <path
         inkscape:connector-curvature="0"
         d="m 444.64139,129.35324 0,27.16797 -3.96485,0.0391 -0.0781,-22.89062 -8.24219,5.29297 -3.86719,0 -6.85546,-5.44922 0,23.125 -3.78907,-0.0781 0,-26.79687 -3.88672,0 -2.67578,-2.67578 15.07813,0 3.51562,2.67578 -8.20312,0 8.80859,6.48437 10.15625,-6.77734 -2.63672,0.0586 -2.94922,-2.57812 12.38282,0.0391 2.96875,2.53906 -5.76172,-0.17578 z"
         style="font-style:normal;font-variant:normal;font-weight:normal;font-stretch:normal;font-family:Ani;-inkscape-font-specification:Ani;fill:#808000;stroke:#808000"
         id="path4149-2" />
      <path
         inkscape:connector-curvature="0"
         d="m 458.09842,144.7634 -7.20703,2.24609 -0.3125,5.11719 2.40234,5.29297 4.96094,0.64453 5.13672,-4.33594 1.75781,3.37891 4.16016,0.46875 0.33203,-1.75782 -3.04688,-0.46875 -4.80468,-7.87109 -1.75782,1.28906 2.22657,3.45703 -3.67188,2.94922 -2.73437,-0.15625 -2.07032,-3.35937 0.46875,-3.84766 4.49219,-1.60156 -0.33203,-1.44531 z"
         style="font-style:normal;font-variant:normal;font-weight:normal;font-stretch:normal;font-family:Ani;-inkscape-font-specification:Ani;fill:#808000;stroke:#808000"
         id="path4151-9" />
      <path
         inkscape:connector-curvature="0"
         d="m 466.75076,130.77902 3.65235,0.0586 0.0586,27.36328 2.85156,0.27343 0,-9.70703 4.16016,0.44922 0.50781,9.02344 3.04688,-0.37109 0.0976,-9.10157 -1.66015,-4.21875 -6.17188,-0.19531 0.13672,-13.53516 3.96484,0.35157 -2.77343,-4.19922 -10.44922,-0.19531 2.57812,4.0039 z"
         style="font-style:normal;font-variant:normal;font-weight:normal;font-stretch:normal;font-family:Ani;-inkscape-font-specification:Ani;fill:#808000;stroke:#808000"
         id="path4153-1" />
      <path
         inkscape:connector-curvature="0"
         d="m 491.20389,163.7673 0.0195,-10.72265 0.41016,-8.75 2.65625,2.92968 0,20.78125 -8.59375,-3.78906 -3.30079,-2.63672 8.8086,2.1875 z m 5.37109,-24.90234 q 0,1.32812 -0.89844,2.5 -0.89843,1.17187 -2.40234,1.17187 -1.69922,0 -2.59766,-1.07421 -0.89843,-1.09375 -0.89843,-2.59766 0,-1.50391 0.89843,-2.61719 0.89844,-1.13281 2.59766,-1.13281 1.50391,0 2.40234,1.09375 0.89844,1.07422 0.89844,2.65625 z m -2.05078,0 q 0,-0.76172 -0.42969,-1.26953 -0.42968,-0.52735 -1.13281,-0.52735 -0.80078,0 -1.23047,0.54688 -0.42969,0.52734 -0.42969,1.25 0,0.70312 0.42969,1.23047 0.42969,0.50781 1.23047,0.50781 0.70313,0 1.13281,-0.54687 0.42969,-0.56641 0.42969,-1.19141 z"
         style="font-style:normal;font-variant:normal;font-weight:normal;font-stretch:normal;font-family:Ani;-inkscape-font-specification:Ani;fill:#808000;stroke:#808000"
         id="path4155-2" />
      <path
         inkscape:connector-curvature="0"
         d="m 513.5867,152.45871 q 0.99609,-1.71875 0.44922,-3.02734 -0.52734,-1.3086 -2.57813,-1.5625 -2.30468,-0.3125 -4.23828,0.74218 -1.93359,1.03516 -2.87109,2.65625 -0.95703,1.6211 -0.41016,2.92969 0.54688,1.30859 2.85157,1.60156 2.05078,0.27344 4.0039,-0.82031 1.95313,-1.11328 2.79297,-2.51953 z m 1.81641,0.33203 q -1.19141,2.16797 -4.00391,3.86719 -2.79297,1.67969 -5.74219,1.26953 -3.30078,-0.44922 -4.08203,-2.46094 -0.76172,-2.01172 0.60547,-4.49219 1.34766,-2.46093 4.12109,-4.0625 2.77344,-1.62109 6.07422,-1.17187 2.92969,0.41016 3.69141,2.42187 0.78125,2.01172 -0.66406,4.62891 z"
         style="font-style:normal;font-variant:normal;font-weight:normal;font-stretch:normal;font-family:Ani;-inkscape-font-specification:Ani;fill:#808000;stroke:#808000"
         id="path4157-7" />
      <path
         inkscape:connector-curvature="0"
         d="m 518.13748,147.81027 3.33985,-0.39062 0,9.17968 1.77734,0.97657 0.44922,-9.17969 q 4.02344,-2.92969 6.91406,0 l 0.23438,7.8125 1.77734,1.5625 0,-11.32813 q -5.35156,-4.10156 -11.36719,0 l -3.57422,-0.19531 0.44922,1.5625 z"
         style="font-style:normal;font-variant:normal;font-weight:normal;font-stretch:normal;font-family:Ani;-inkscape-font-specification:Ani;fill:#808000;stroke:#808000"
         id="path4159-0" />
      <path
         inkscape:connector-curvature="0"
         d="m 541.47733,144.48996 -6.5625,2.1875 -0.29297,5.01953 2.1875,5.15625 4.53125,0.625 4.66797,-4.21875 -4.45313,9.76563 -6.48437,-3.94532 -0.83985,2.75391 5.80078,4.0625 3.28125,0.27344 5.625,-11.34766 -4.39453,-7.67578 -1.60156,1.25 2.05078,3.37891 -3.35937,2.89062 -2.48047,-0.15625 -1.91407,-3.28125 0.44922,-3.76953 4.08203,-1.5625 -0.29296,-1.40625 z"
         style="font-style:normal;font-variant:normal;font-weight:normal;font-stretch:normal;font-family:Ani;-inkscape-font-specification:Ani;fill:#808000;stroke:#808000"
         id="path4161-9" />
    </g>
    <g
       style="font-style:normal;font-weight:normal;font-size:40px;line-height:125%;font-family:sans-serif;letter-spacing:0px;word-spacing:0px;fill:#000000;fill-opacity:1;stroke:#ffff00;stroke-width:1px;stroke-linecap:butt;stroke-linejoin:miter;stroke-opacity:1"
       id="text4136">
      <path
         d="m 280.24686,131.85324 14.10156,0 0.82031,0.625 q -5.70312,1.34766 -6.95312,3.92578 -1.23047,2.57813 0.3125,5.11719 1.5625,2.53906 5.80078,3.94531 4.23828,1.40625 5.35156,3.53516 1.13281,2.10937 0.99609,3.24219 -0.13671,1.11328 -1.83593,2.8125 -1.69922,1.69921 -9.02344,1.13281 l -5.07813,-2.83203 -1.69921,2.26562 3.3789,2.26563 11.09375,0.41015 q 6.40625,-2.67578 6.83594,-5.91797 0.42969,-3.24218 -1.97266,-5.07812 -2.40234,-1.83594 -5.64453,-2.96875 -3.24219,-1.13281 -4.375,-3.10547 -1.13281,-1.97266 0.27344,-3.94531 l 3.39844,-2.53906 4.78515,-0.29297 3.10547,2.83203 1.13281,-1.69922 -3.10546,-3.37891 9.90234,-0.35156 -1.69922,-2.01172 -1.69922,-1.99219 -32.20703,0 4.00391,4.00391 z"
         style="font-style:normal;font-variant:normal;font-weight:normal;font-stretch:normal;font-family:Ani;-inkscape-font-specification:Ani;fill:#ffff00;stroke:#ffff00"
         id="path4137" />
      <path
         d="m 312.04373,158.29855 0.0195,-5.83984 0.0195,-8.75 3.04688,2.92969 0,9.84375 3.90625,-1.64063 -3.49609,3.02735 -3.4961,0.42968 z m 5.17578,-19.82422 q 0,1.32813 -0.89843,2.5 -0.89844,1.17188 -2.40235,1.17188 -1.69922,0 -2.59765,-1.07422 -0.89844,-1.09375 -0.89844,-2.59766 0,-1.5039 0.89844,-2.61718 0.89843,-1.13282 2.59765,-1.13282 1.50391,0 2.40235,1.09375 0.89843,1.07422 0.89843,2.65625 z m -2.05078,0 q 0,-0.76171 -0.42969,-1.26953 -0.42968,-0.52734 -1.13281,-0.52734 -0.80078,0 -1.23047,0.54687 -0.42968,0.52735 -0.42968,1.25 0,0.70313 0.42968,1.23047 0.42969,0.50782 1.23047,0.50782 0.70313,0 1.13281,-0.54688 0.42969,-0.56641 0.42969,-1.19141 z"
         style="font-style:normal;font-variant:normal;font-weight:normal;font-stretch:normal;font-family:Ani;-inkscape-font-specification:Ani;fill:#ffff00;stroke:#ffff00"
         id="path4139" />
      <path
         d="m 322.10233,147.81027 3.35937,-0.39062 0.23438,8.98437 1.5625,1.17188 0.44921,-9.17969 q 4.02344,-2.92969 6.9336,0 l 0.23437,7.8125 1.79688,1.5625 0.66406,-9.96094 -2.01172,-1.5625 2.46094,1.95313 q 4.04297,-2.92969 6.95312,0 l 0,7.8125 2.01172,1.5625 0,-11.32813 q -5.37109,-4.10156 -11.54297,-0.29297 -3.92578,-3.61328 -9.96093,0.48828 l -3.59375,-0.19531 0.44922,1.5625 z"
         style="font-style:normal;font-variant:normal;font-weight:normal;font-stretch:normal;font-family:Ani;-inkscape-font-specification:Ani;fill:#ffff00;stroke:#ffff00"
         id="path4141" />
      <path
         d="m 355.75467,144.78293 8.49609,4.78515 1.17188,4.49219 -1.75781,3.32031 -5.27344,0.97657 -5.07813,-3.71094 0,11.32812 -2.14843,-2.53906 0,-23.63281 2.14843,2.92969 0,9.375 4.6875,4.10156 4.10157,-0.97656 0.39062,-4.49219 -8.78906,-4.39453 2.05078,-1.5625 z"
         style="font-style:normal;font-variant:normal;font-weight:normal;font-stretch:normal;font-family:Ani;-inkscape-font-specification:Ani;fill:#ffff00;stroke:#ffff00"
         id="path4143" />
      <path
         d="m 372.98123,157.55637 0.0195,-26.54297 -1.54297,-0.0391 -3.28125,-3.02734 9.16016,0.13672 2.10938,2.92969 -3.39844,-0.15625 0.0391,25.42968 1.97266,-2.08984 1.44531,0.0586 -3.26172,4.82422 -3.26172,-1.52343 z"
         style="font-style:normal;font-variant:normal;font-weight:normal;font-stretch:normal;font-family:Ani;-inkscape-font-specification:Ani;fill:#ffff00;stroke:#ffff00"
         id="path4145" />
      <path
         d="m 387.00467,153.66965 12.26562,-7.10938 -10.97656,-3.22265 -5.58594,4.9414 -0.42968,3.88672 5.58593,5.37109 4.96094,0.42969 5.80078,-4.29687 -2.79297,-1.50391 -3.86718,3.65234 -3.67188,-0.21484 -3.65234,-3.65234 0.42969,-2.8125 3.22265,-2.14844 5.39063,0.21484 -8.61328,4.53125 1.93359,1.9336 z"
         style="font-style:normal;font-variant:normal;font-weight:normal;font-stretch:normal;font-family:Ani;-inkscape-font-specification:Ani;fill:#ffff00;stroke:#ffff00"
         id="path4147" />
      <path
         d="m 444.64139,129.35324 0,27.16797 -3.96485,0.0391 -0.0781,-22.89062 -8.24219,5.29297 -3.86719,0 -6.85546,-5.44922 0,23.125 -3.78907,-0.0781 0,-26.79687 -3.88672,0 -2.67578,-2.67578 15.07813,0 3.51562,2.67578 -8.20312,0 8.80859,6.48437 10.15625,-6.77734 -2.63672,0.0586 -2.94922,-2.57812 12.38282,0.0391 2.96875,2.53906 -5.76172,-0.17578 z"
         style="font-style:normal;font-variant:normal;font-weight:normal;font-stretch:normal;font-family:Ani;-inkscape-font-specification:Ani;fill:#ffff00;stroke:#ffff00"
         id="path4149" />
      <path
         d="m 458.09842,144.7634 -7.20703,2.24609 -0.3125,5.11719 2.40234,5.29297 4.96094,0.64453 5.13672,-4.33594 1.75781,3.37891 4.16016,0.46875 0.33203,-1.75782 -3.04688,-0.46875 -4.80468,-7.87109 -1.75782,1.28906 2.22657,3.45703 -3.67188,2.94922 -2.73437,-0.15625 -2.07032,-3.35937 0.46875,-3.84766 4.49219,-1.60156 -0.33203,-1.44531 z"
         style="font-style:normal;font-variant:normal;font-weight:normal;font-stretch:normal;font-family:Ani;-inkscape-font-specification:Ani;fill:#ffff00;stroke:#ffff00"
         id="path4151" />
      <path
         d="m 466.75076,130.77902 3.65235,0.0586 0.0586,27.36328 2.85156,0.27343 0,-9.70703 4.16016,0.44922 0.50781,9.02344 3.04688,-0.37109 0.0976,-9.10157 -1.66015,-4.21875 -6.17188,-0.19531 0.13672,-13.53516 3.96484,0.35157 -2.77343,-4.19922 -10.44922,-0.19531 2.57812,4.0039 z"
         style="font-style:normal;font-variant:normal;font-weight:normal;font-stretch:normal;font-family:Ani;-inkscape-font-specification:Ani;fill:#ffff00;stroke:#ffff00"
         id="path4153" />
      <path
         d="m 491.20389,163.7673 0.0195,-10.72265 0.41016,-8.75 2.65625,2.92968 0,20.78125 -8.59375,-3.78906 -3.30079,-2.63672 8.8086,2.1875 z m 5.37109,-24.90234 q 0,1.32812 -0.89844,2.5 -0.89843,1.17187 -2.40234,1.17187 -1.69922,0 -2.59766,-1.07421 -0.89843,-1.09375 -0.89843,-2.59766 0,-1.50391 0.89843,-2.61719 0.89844,-1.13281 2.59766,-1.13281 1.50391,0 2.40234,1.09375 0.89844,1.07422 0.89844,2.65625 z m -2.05078,0 q 0,-0.76172 -0.42969,-1.26953 -0.42968,-0.52735 -1.13281,-0.52735 -0.80078,0 -1.23047,0.54688 -0.42969,0.52734 -0.42969,1.25 0,0.70312 0.42969,1.23047 0.42969,0.50781 1.23047,0.50781 0.70313,0 1.13281,-0.54687 0.42969,-0.56641 0.42969,-1.19141 z"
         style="font-style:normal;font-variant:normal;font-weight:normal;font-stretch:normal;font-family:Ani;-inkscape-font-specification:Ani;fill:#ffff00;stroke:#ffff00"
         id="path4155" />
      <path
         d="m 513.5867,152.45871 q 0.99609,-1.71875 0.44922,-3.02734 -0.52734,-1.3086 -2.57813,-1.5625 -2.30468,-0.3125 -4.23828,0.74218 -1.93359,1.03516 -2.87109,2.65625 -0.95703,1.6211 -0.41016,2.92969 0.54688,1.30859 2.85157,1.60156 2.05078,0.27344 4.0039,-0.82031 1.95313,-1.11328 2.79297,-2.51953 z m 1.81641,0.33203 q -1.19141,2.16797 -4.00391,3.86719 -2.79297,1.67969 -5.74219,1.26953 -3.30078,-0.44922 -4.08203,-2.46094 -0.76172,-2.01172 0.60547,-4.49219 1.34766,-2.46093 4.12109,-4.0625 2.77344,-1.62109 6.07422,-1.17187 2.92969,0.41016 3.69141,2.42187 0.78125,2.01172 -0.66406,4.62891 z"
         style="font-style:normal;font-variant:normal;font-weight:normal;font-stretch:normal;font-family:Ani;-inkscape-font-specification:Ani;fill:#ffff00;stroke:#ffff00"
         id="path4157" />
      <path
         d="m 518.13748,147.81027 3.33985,-0.39062 0,9.17968 1.77734,0.97657 0.44922,-9.17969 q 4.02344,-2.92969 6.91406,0 l 0.23438,7.8125 1.77734,1.5625 0,-11.32813 q -5.35156,-4.10156 -11.36719,0 l -3.57422,-0.19531 0.44922,1.5625 z"
         style="font-style:normal;font-variant:normal;font-weight:normal;font-stretch:normal;font-family:Ani;-inkscape-font-specification:Ani;fill:#ffff00;stroke:#ffff00"
         id="path4159" />
      <path
         d="m 541.47733,144.48996 -6.5625,2.1875 -0.29297,5.01953 2.1875,5.15625 4.53125,0.625 4.66797,-4.21875 -4.45313,9.76563 -6.48437,-3.94532 -0.83985,2.75391 5.80078,4.0625 3.28125,0.27344 5.625,-11.34766 -4.39453,-7.67578 -1.60156,1.25 2.05078,3.37891 -3.35937,2.89062 -2.48047,-0.15625 -1.91407,-3.28125 0.44922,-3.76953 4.08203,-1.5625 -0.29296,-1.40625 z"
         style="font-style:normal;font-variant:normal;font-weight:normal;font-stretch:normal;font-family:Ani;-inkscape-font-specification:Ani;fill:#ffff00;stroke:#ffff00"
         id="path4161" />
    </g>
  </g>
</svg>
